# xmcd
#
# Track frame offsets: 
#        180
#        15345
#        29930
#        44913
#
# Disc length: 764 seconds
#
# Revision: 0
# Processed by: cddbd v1.5.2PL0 Copyright (c) Steve Scherf et al.
# Submitted via: ExactAudioCopy v0.95b4
#
DISCID=3302fa04
DTITLE=Michael Birkenfeld - Alles geben
DYEAR=1900
DGENRE=Schlager
TTITLE0=Alles geben
TTITLE1=Neun Gebote
TTITLE2=Ich hab' mich verliebt
TTITLE3=Meinst du etwa mich
EXTD=
EXTT0=
EXTT1=
EXTT2=
EXTT3=
PLAYORDER=
